<svg width="885" height="183" viewBox="0 0 885 183" fill="none" xmlns="http://www.w3.org/2000/svg">
<rect width="885" height="183" fill="white"/>
<path d="M753.173 58.7744V69.7695C753.161 70.1562 753.155 70.4727 753.155 70.7188C753.155 70.959 753.132 71.249 753.085 71.5889C753.044 71.9346 752.985 72.2246 752.909 72.459C752.839 72.6992 752.733 72.9658 752.593 73.2588C752.452 73.5518 752.285 73.8066 752.092 74.0234C751.623 74.5508 751.034 74.9932 750.325 75.3506L749.64 74.4805C750.325 73.9531 750.82 73.3789 751.125 72.7578C751.43 72.1426 751.582 71.3545 751.582 70.3936V58.7744H753.173ZM760.081 67.291C757.925 67.291 756.847 67.8271 756.847 68.8994C756.847 69.1865 756.935 69.4531 757.11 69.6992C757.292 69.9453 757.497 70.0684 757.726 70.0684H758.068C759.357 70.0684 760.046 69.3916 760.134 68.0381V67.291H760.081ZM756.038 63.1514C757.093 62.7822 757.957 62.5977 758.631 62.5977C759.305 62.5977 759.894 62.7646 760.397 63.0986C760.901 63.4326 761.238 63.9277 761.408 64.584C761.502 64.9531 761.549 65.7061 761.549 66.8428V69.5938C761.549 70.1094 761.59 70.5781 761.672 71H760.248C760.172 70.7598 760.134 70.4873 760.134 70.1826V70.1211C759.987 70.2969 759.826 70.4492 759.65 70.5781C759.1 70.9824 758.514 71.1846 757.893 71.1846C756.85 71.1846 756.132 70.8125 755.739 70.0684C755.534 69.6992 755.432 69.3213 755.432 68.9346C755.432 67.9092 756.032 67.168 757.233 66.7109C757.954 66.4355 758.868 66.2979 759.976 66.2979H760.134V65.4102C760.134 64.7656 760.011 64.3262 759.765 64.0918C759.478 63.8223 759 63.6875 758.332 63.6875C757.664 63.6875 756.923 63.875 756.108 64.25L756.038 63.1514ZM769.661 62.7559H771.085L767.42 71H766.488L762.806 62.7559H764.326L766.998 68.6621L769.661 62.7559ZM776.587 67.291C774.431 67.291 773.353 67.8271 773.353 68.8994C773.353 69.1865 773.44 69.4531 773.616 69.6992C773.798 69.9453 774.003 70.0684 774.231 70.0684H774.574C775.863 70.0684 776.552 69.3916 776.64 68.0381V67.291H776.587ZM772.544 63.1514C773.599 62.7822 774.463 62.5977 775.137 62.5977C775.811 62.5977 776.399 62.7646 776.903 63.0986C777.407 63.4326 777.744 63.9277 777.914 64.584C778.008 64.9531 778.055 65.7061 778.055 66.8428V69.5938C778.055 70.1094 778.096 70.5781 778.178 71H776.754C776.678 70.7598 776.64 70.4873 776.64 70.1826V70.1211C776.493 70.2969 776.332 70.4492 776.156 70.5781C775.605 70.9824 775.02 71.1846 774.398 71.1846C773.355 71.1846 772.638 70.8125 772.245 70.0684C772.04 69.6992 771.938 69.3213 771.938 68.9346C771.938 67.9092 772.538 67.168 773.739 66.7109C774.46 66.4355 775.374 66.2979 776.481 66.2979H776.64V65.4102C776.64 64.7656 776.517 64.3262 776.271 64.0918C775.983 63.8223 775.506 63.6875 774.838 63.6875C774.17 63.6875 773.429 63.875 772.614 64.25L772.544 63.1514Z" fill="black"/>
<path d="M76.27 65.168C75.3833 65.168 74.6647 64.9627 74.114 64.552C73.5727 64.132 73.2693 63.558 73.204 62.83H74.422C74.478 63.2127 74.6647 63.5253 74.982 63.768C75.3087 64.0107 75.7473 64.132 76.298 64.132C76.8207 64.132 77.208 64.02 77.46 63.796C77.7213 63.572 77.852 63.3153 77.852 63.026C77.852 62.634 77.698 62.368 77.39 62.228C77.082 62.0787 76.62 61.9667 76.004 61.892C75.2667 61.808 74.6553 61.6073 74.17 61.29C73.6847 60.9727 73.442 60.4967 73.442 59.862C73.442 59.2927 73.68 58.8213 74.156 58.448C74.632 58.0747 75.2807 57.888 76.102 57.888C76.914 57.888 77.5533 58.0747 78.02 58.448C78.4867 58.812 78.7527 59.3347 78.818 60.016H77.656C77.628 59.68 77.4647 59.414 77.166 59.218C76.8767 59.0127 76.5127 58.91 76.074 58.91C75.6167 58.91 75.262 58.9987 75.01 59.176C74.758 59.344 74.632 59.568 74.632 59.848C74.632 60.128 74.772 60.3613 75.052 60.548C75.3413 60.7253 75.794 60.842 76.41 60.898C76.8953 60.954 77.3387 61.0473 77.74 61.178C78.1413 61.3087 78.4587 61.514 78.692 61.794C78.9347 62.074 79.056 62.466 79.056 62.97C79.0653 63.39 78.9487 63.768 78.706 64.104C78.4727 64.4307 78.146 64.692 77.726 64.888C77.306 65.0747 76.8207 65.168 76.27 65.168ZM84.5945 65.168C83.9412 65.168 83.3625 65.0187 82.8585 64.72C82.3545 64.4213 81.9579 64.0013 81.6685 63.46C81.3792 62.9093 81.2345 62.2653 81.2345 61.528C81.2345 60.7907 81.3792 60.1513 81.6685 59.61C81.9579 59.0593 82.3545 58.6347 82.8585 58.336C83.3625 58.0373 83.9412 57.888 84.5945 57.888C85.2479 57.888 85.8265 58.0373 86.3305 58.336C86.8345 58.6347 87.2312 59.0593 87.5205 59.61C87.8099 60.1513 87.9545 60.7907 87.9545 61.528C87.9545 62.2653 87.8099 62.9093 87.5205 63.46C87.2312 64.0013 86.8345 64.4213 86.3305 64.72C85.8265 65.0187 85.2479 65.168 84.5945 65.168ZM84.5945 64.048C84.9959 64.048 85.3599 63.9593 85.6865 63.782C86.0132 63.6047 86.2699 63.3293 86.4565 62.956C86.6525 62.5827 86.7505 62.1067 86.7505 61.528C86.7505 60.9493 86.6525 60.4733 86.4565 60.1C86.2699 59.7267 86.0132 59.4513 85.6865 59.274C85.3599 59.0967 84.9959 59.008 84.5945 59.008C84.2025 59.008 83.8432 59.0967 83.5165 59.274C83.1899 59.4513 82.9285 59.7267 82.7325 60.1C82.5365 60.4733 82.4385 60.9493 82.4385 61.528C82.4385 62.396 82.6485 63.0353 83.0685 63.446C83.4885 63.8473 83.9972 64.048 84.5945 64.048ZM90.0771 68.08V67.002H90.9311C91.2857 67.002 91.5377 66.932 91.6871 66.792C91.8364 66.652 91.9111 66.4047 91.9111 66.05V59.064H90.1891V58.056H91.9111V56.95C91.9111 56.2313 92.0837 55.7133 92.4291 55.396C92.7744 55.0787 93.2971 54.92 93.9971 54.92H95.6631V55.984H94.0671C93.7217 55.984 93.4697 56.0587 93.3111 56.208C93.1617 56.348 93.0871 56.5953 93.0871 56.95V58.056H95.6631V59.064H93.0871V66.05C93.0871 66.7687 92.9144 67.2867 92.5691 67.604C92.2237 67.9213 91.7057 68.08 91.0151 68.08H90.0771ZM102.112 65C101.477 65 100.978 64.846 100.614 64.538C100.25 64.23 100.068 63.6747 100.068 62.872V59.064H98.3036V58.056H99.3536C99.8296 58.056 100.105 57.8227 100.18 57.356L100.376 56.278H101.244V58.056H104.016V59.064H101.244V62.872C101.244 63.264 101.332 63.5393 101.51 63.698C101.696 63.8567 102.014 63.936 102.462 63.936H104.016V65H102.112ZM107.314 65L105.774 58.056H106.936L107.93 63.25L109.12 58.056H110.436L111.626 63.25L112.62 58.056H113.796L112.242 65H111.038L109.778 59.61L108.518 65H107.314ZM117.585 65.168C117.034 65.168 116.577 65.07 116.213 64.874C115.849 64.678 115.578 64.4213 115.401 64.104C115.223 63.7773 115.135 63.4227 115.135 63.04C115.135 62.3307 115.391 61.794 115.905 61.43C116.427 61.0567 117.123 60.87 117.991 60.87H119.895V60.73C119.895 59.5167 119.339 58.91 118.229 58.91C117.781 58.91 117.403 59.008 117.095 59.204C116.796 59.4 116.605 59.708 116.521 60.128H115.317C115.363 59.6613 115.517 59.26 115.779 58.924C116.049 58.588 116.395 58.3313 116.815 58.154C117.235 57.9767 117.706 57.888 118.229 57.888C119.218 57.888 119.937 58.1493 120.385 58.672C120.842 59.1853 121.071 59.8713 121.071 60.73V65H120.063L119.965 63.922H119.867C119.661 64.258 119.386 64.552 119.041 64.804C118.705 65.0467 118.219 65.168 117.585 65.168ZM117.795 64.132C118.243 64.132 118.621 64.0247 118.929 63.81C119.246 63.5953 119.484 63.3107 119.643 62.956C119.811 62.6013 119.895 62.214 119.895 61.794H118.089C117.454 61.794 117.006 61.9013 116.745 62.116C116.493 62.3307 116.367 62.6153 116.367 62.97C116.367 63.334 116.488 63.6187 116.731 63.824C116.973 64.0293 117.328 64.132 117.795 64.132ZM123.543 65V63.992H125.321V59.414C125.321 59.1807 125.209 59.064 124.985 59.064H123.725V58.056H125.419C125.727 58.056 125.975 58.14 126.161 58.308C126.348 58.476 126.441 58.7233 126.441 59.05V59.344H126.497C126.609 58.8773 126.819 58.518 127.127 58.266C127.445 58.014 127.883 57.888 128.443 57.888H129.717V59.134H128.275C127.706 59.134 127.267 59.3253 126.959 59.708C126.651 60.0813 126.497 60.562 126.497 61.15V63.992H128.681V65H123.543ZM135.032 65.168C134.378 65.168 133.8 65.0187 133.296 64.72C132.801 64.412 132.409 63.9873 132.12 63.446C131.83 62.8953 131.686 62.256 131.686 61.528C131.686 60.8 131.826 60.1653 132.106 59.624C132.395 59.0733 132.792 58.6487 133.296 58.35C133.8 58.042 134.388 57.888 135.06 57.888C135.732 57.888 136.306 58.042 136.782 58.35C137.258 58.6487 137.622 59.0453 137.874 59.54C138.126 60.0347 138.252 60.5667 138.252 61.136C138.252 61.2387 138.247 61.3413 138.238 61.444C138.238 61.5467 138.238 61.6633 138.238 61.794H132.848C132.876 62.3073 132.992 62.7367 133.198 63.082C133.412 63.418 133.678 63.67 133.996 63.838C134.322 64.006 134.668 64.09 135.032 64.09C135.545 64.09 135.946 63.9827 136.236 63.768C136.525 63.5533 136.744 63.2547 136.894 62.872H138.056C137.897 63.516 137.566 64.062 137.062 64.51C136.558 64.9487 135.881 65.168 135.032 65.168ZM135.032 58.938C134.49 58.938 134.014 59.1013 133.604 59.428C133.202 59.7547 132.955 60.212 132.862 60.8H137.09C137.052 60.2213 136.842 59.7687 136.46 59.442C136.086 59.106 135.61 58.938 135.032 58.938ZM152.479 65C151.844 65 151.345 64.846 150.981 64.538C150.617 64.23 150.435 63.6747 150.435 62.872V59.064H148.671V58.056H149.721C150.197 58.056 150.472 57.8227 150.547 57.356L150.743 56.278H151.611V58.056H154.383V59.064H151.611V62.872C151.611 63.264 151.699 63.5393 151.877 63.698C152.063 63.8567 152.381 63.936 152.829 63.936H154.383V65H152.479ZM160.215 65.168C159.562 65.168 158.983 65.0187 158.479 64.72C157.985 64.412 157.593 63.9873 157.303 63.446C157.014 62.8953 156.869 62.256 156.869 61.528C156.869 60.8 157.009 60.1653 157.289 59.624C157.579 59.0733 157.975 58.6487 158.479 58.35C158.983 58.042 159.571 57.888 160.243 57.888C160.915 57.888 161.489 58.042 161.965 58.35C162.441 58.6487 162.805 59.0453 163.057 59.54C163.309 60.0347 163.435 60.5667 163.435 61.136C163.435 61.2387 163.431 61.3413 163.421 61.444C163.421 61.5467 163.421 61.6633 163.421 61.794H158.031C158.059 62.3073 158.176 62.7367 158.381 63.082C158.596 63.418 158.862 63.67 159.179 63.838C159.506 64.006 159.851 64.09 160.215 64.09C160.729 64.09 161.13 63.9827 161.419 63.768C161.709 63.5533 161.928 63.2547 162.077 62.872H163.239C163.081 63.516 162.749 64.062 162.245 64.51C161.741 64.9487 161.065 65.168 160.215 65.168ZM160.215 58.938C159.674 58.938 159.198 59.1013 158.787 59.428C158.386 59.7547 158.139 60.212 158.045 60.8H162.273C162.236 60.2213 162.026 59.7687 161.643 59.442C161.27 59.106 160.794 58.938 160.215 58.938ZM168.61 65.168C167.723 65.168 167.005 64.9627 166.454 64.552C165.913 64.132 165.609 63.558 165.544 62.83H166.762C166.818 63.2127 167.005 63.5253 167.322 63.768C167.649 64.0107 168.087 64.132 168.638 64.132C169.161 64.132 169.548 64.02 169.8 63.796C170.061 63.572 170.192 63.3153 170.192 63.026C170.192 62.634 170.038 62.368 169.73 62.228C169.422 62.0787 168.96 61.9667 168.344 61.892C167.607 61.808 166.995 61.6073 166.51 61.29C166.025 60.9727 165.782 60.4967 165.782 59.862C165.782 59.2927 166.02 58.8213 166.496 58.448C166.972 58.0747 167.621 57.888 168.442 57.888C169.254 57.888 169.893 58.0747 170.36 58.448C170.827 58.812 171.093 59.3347 171.158 60.016H169.996C169.968 59.68 169.805 59.414 169.506 59.218C169.217 59.0127 168.853 58.91 168.414 58.91C167.957 58.91 167.602 58.9987 167.35 59.176C167.098 59.344 166.972 59.568 166.972 59.848C166.972 60.128 167.112 60.3613 167.392 60.548C167.681 60.7253 168.134 60.842 168.75 60.898C169.235 60.954 169.679 61.0473 170.08 61.178C170.481 61.3087 170.799 61.514 171.032 61.794C171.275 62.074 171.396 62.466 171.396 62.97C171.405 63.39 171.289 63.768 171.046 64.104C170.813 64.4307 170.486 64.692 170.066 64.888C169.646 65.0747 169.161 65.168 168.61 65.168ZM177.662 65C177.028 65 176.528 64.846 176.164 64.538C175.8 64.23 175.618 63.6747 175.618 62.872V59.064H173.854V58.056H174.904C175.38 58.056 175.656 57.8227 175.73 57.356L175.926 56.278H176.794V58.056H179.566V59.064H176.794V62.872C176.794 63.264 176.883 63.5393 177.06 63.698C177.247 63.8567 177.564 63.936 178.012 63.936H179.566V65H177.662ZM185.245 56.824C184.965 56.824 184.732 56.7307 184.545 56.544C184.358 56.3573 184.265 56.1333 184.265 55.872C184.265 55.6013 184.358 55.3773 184.545 55.2C184.732 55.0133 184.965 54.92 185.245 54.92C185.516 54.92 185.744 55.0133 185.931 55.2C186.127 55.3773 186.225 55.6013 186.225 55.872C186.225 56.1333 186.127 56.3573 185.931 56.544C185.744 56.7307 185.516 56.824 185.245 56.824ZM182.529 65V63.992H184.741V59.414C184.741 59.1807 184.624 59.064 184.391 59.064H182.767V58.056H184.671C185.502 58.056 185.917 58.4713 185.917 59.302V63.992H188.129V65H182.529ZM190.755 65V58.056H191.735L191.861 59.106H191.931C192.118 58.77 192.412 58.4853 192.813 58.252C193.215 58.0093 193.677 57.888 194.199 57.888C195.049 57.888 195.683 58.14 196.103 58.644C196.533 59.148 196.747 59.876 196.747 60.828V65H195.571V60.968C195.571 60.352 195.436 59.8713 195.165 59.526C194.895 59.1713 194.475 58.994 193.905 58.994C193.355 58.994 192.888 59.1853 192.505 59.568C192.123 59.9413 191.931 60.4827 191.931 61.192V65H190.755ZM201.992 62.956C201.507 62.956 201.073 62.8673 200.69 62.69L200.214 63.264C200.111 63.404 200.083 63.544 200.13 63.684C200.186 63.8147 200.321 63.88 200.536 63.88H202.37C203.201 63.88 203.873 64.0433 204.386 64.37C204.899 64.6873 205.156 65.196 205.156 65.896C205.156 66.316 205.049 66.7033 204.834 67.058C204.619 67.4127 204.279 67.6973 203.812 67.912C203.355 68.136 202.753 68.248 202.006 68.248C201.035 68.248 200.256 68.066 199.668 67.702C199.08 67.338 198.786 66.7827 198.786 66.036C198.786 65.7653 198.851 65.5133 198.982 65.28C199.122 65.056 199.295 64.8553 199.5 64.678C199.229 64.51 199.061 64.258 198.996 63.922C198.94 63.586 199.043 63.2547 199.304 62.928L199.934 62.144C199.486 61.6773 199.262 61.1033 199.262 60.422C199.262 59.974 199.369 59.5587 199.584 59.176C199.799 58.784 200.107 58.4713 200.508 58.238C200.919 58.0047 201.413 57.888 201.992 57.888C202.365 57.888 202.711 57.944 203.028 58.056H205.632V58.938L204.33 58.98V59.078C204.573 59.4793 204.694 59.9273 204.694 60.422C204.694 60.87 204.587 61.29 204.372 61.682C204.167 62.0647 203.859 62.3727 203.448 62.606C203.047 62.8393 202.561 62.956 201.992 62.956ZM201.992 61.948C202.449 61.948 202.823 61.8127 203.112 61.542C203.411 61.2713 203.56 60.898 203.56 60.422C203.56 59.946 203.411 59.5773 203.112 59.316C202.823 59.0453 202.449 58.91 201.992 58.91C201.525 58.91 201.143 59.0453 200.844 59.316C200.545 59.5773 200.396 59.946 200.396 60.422C200.396 60.898 200.545 61.2713 200.844 61.542C201.143 61.8127 201.525 61.948 201.992 61.948ZM199.948 65.994C199.948 66.4047 200.139 66.7127 200.522 66.918C200.905 67.1233 201.399 67.226 202.006 67.226C202.594 67.226 203.07 67.1093 203.434 66.876C203.807 66.6427 203.994 66.33 203.994 65.938C203.994 65.63 203.863 65.3687 203.602 65.154C203.341 64.9487 202.86 64.846 202.16 64.846H200.578C200.158 65.154 199.948 65.5367 199.948 65.994Z" fill="black"/>
<path d="M191.736 87L190.196 80.056H191.358L192.352 85.25L193.542 80.056H194.858L196.048 85.25L197.042 80.056H198.218L196.664 87H195.46L194.2 81.61L192.94 87H191.736ZM202.511 78.824C202.231 78.824 201.997 78.7307 201.811 78.544C201.624 78.3573 201.531 78.1333 201.531 77.872C201.531 77.6013 201.624 77.3773 201.811 77.2C201.997 77.0133 202.231 76.92 202.511 76.92C202.781 76.92 203.01 77.0133 203.197 77.2C203.393 77.3773 203.491 77.6013 203.491 77.872C203.491 78.1333 203.393 78.3573 203.197 78.544C203.01 78.7307 202.781 78.824 202.511 78.824ZM199.795 87V85.992H202.007V81.414C202.007 81.1807 201.89 81.064 201.657 81.064H200.033V80.056H201.937C202.767 80.056 203.183 80.4713 203.183 81.302V85.992H205.395V87H199.795ZM211.717 87C211.082 87 210.583 86.846 210.219 86.538C209.855 86.23 209.673 85.6747 209.673 84.872V81.064H207.909V80.056H208.959C209.435 80.056 209.71 79.8227 209.785 79.356L209.981 78.278H210.849V80.056H213.621V81.064H210.849V84.872C210.849 85.264 210.938 85.5393 211.115 85.698C211.302 85.8567 211.619 85.936 212.067 85.936H213.621V87H211.717ZM216.346 87V76.92H217.522V81.106C217.708 80.7513 218.016 80.462 218.446 80.238C218.875 80.0047 219.346 79.888 219.86 79.888C220.709 79.888 221.353 80.1447 221.792 80.658C222.24 81.1713 222.464 81.89 222.464 82.814V87H221.288V82.968C221.288 82.3427 221.134 81.8573 220.826 81.512C220.527 81.1667 220.107 80.994 219.566 80.994C219.192 80.994 218.852 81.078 218.544 81.246C218.236 81.414 217.988 81.6613 217.802 81.988C217.615 82.3147 217.522 82.716 217.522 83.192V87H216.346Z" fill="black"/>
<path d="M674.612 91.168C674.061 91.168 673.604 91.07 673.24 90.874C672.876 90.678 672.605 90.4213 672.428 90.104C672.251 89.7773 672.162 89.4227 672.162 89.04C672.162 88.3307 672.419 87.794 672.932 87.43C673.455 87.0567 674.15 86.87 675.018 86.87H676.922V86.73C676.922 85.5167 676.367 84.91 675.256 84.91C674.808 84.91 674.43 85.008 674.122 85.204C673.823 85.4 673.632 85.708 673.548 86.128H672.344C672.391 85.6613 672.545 85.26 672.806 84.924C673.077 84.588 673.422 84.3313 673.842 84.154C674.262 83.9767 674.733 83.888 675.256 83.888C676.245 83.888 676.964 84.1493 677.412 84.672C677.869 85.1853 678.098 85.8713 678.098 86.73V91H677.09L676.992 89.922H676.894C676.689 90.258 676.413 90.552 676.068 90.804C675.732 91.0467 675.247 91.168 674.612 91.168ZM674.822 90.132C675.27 90.132 675.648 90.0247 675.956 89.81C676.273 89.5953 676.511 89.3107 676.67 88.956C676.838 88.6013 676.922 88.214 676.922 87.794H675.116C674.481 87.794 674.033 87.9013 673.772 88.116C673.52 88.3307 673.394 88.6153 673.394 88.97C673.394 89.334 673.515 89.6187 673.758 89.824C674.001 90.0293 674.355 90.132 674.822 90.132ZM680.627 91V84.056H681.607L681.733 85.106H681.803C681.989 84.77 682.283 84.4853 682.685 84.252C683.086 84.0093 683.548 83.888 684.071 83.888C684.92 83.888 685.555 84.14 685.975 84.644C686.404 85.148 686.619 85.876 686.619 86.828V91H685.443V86.968C685.443 86.352 685.307 85.8713 685.037 85.526C684.766 85.1713 684.346 84.994 683.777 84.994C683.226 84.994 682.759 85.1853 682.377 85.568C681.994 85.9413 681.803 86.4827 681.803 87.192V91H680.627ZM691.751 91.168C691.163 91.168 690.636 91.028 690.169 90.748C689.712 90.468 689.352 90.0573 689.091 89.516C688.83 88.9653 688.699 88.298 688.699 87.514C688.699 86.7393 688.83 86.0813 689.091 85.54C689.352 84.9987 689.712 84.588 690.169 84.308C690.636 84.028 691.163 83.888 691.751 83.888C692.302 83.888 692.754 83.9953 693.109 84.21C693.473 84.4247 693.744 84.7047 693.921 85.05V80.92H695.097V91H694.131L694.005 89.922H693.921C693.734 90.3047 693.459 90.608 693.095 90.832C692.731 91.056 692.283 91.168 691.751 91.168ZM691.905 90.048C692.493 90.048 692.978 89.8427 693.361 89.432C693.744 89.012 693.935 88.3773 693.935 87.528C693.935 86.6787 693.744 86.0487 693.361 85.638C692.978 85.218 692.493 85.008 691.905 85.008C691.317 85.008 690.832 85.218 690.449 85.638C690.076 86.0487 689.889 86.6787 689.889 87.528C689.889 88.3773 690.076 89.012 690.449 89.432C690.832 89.8427 691.317 90.048 691.905 90.048Z" fill="black"/>
<path d="M725.911 74.9007C732.165 75.2652 741.773 74.6978 742 72C742 72 741.563 73.0227 736.83 73.8341C731.491 74.7503 724.905 74.6435 721 74.0558C721 74.056 721.8 74.6597 725.911 74.9007V74.9007Z" fill="black"/>
<path d="M731.38 41C731.38 41 733.798 44.6001 729.086 50.1343C725.308 54.5751 728.224 57.1065 729.085 60C726.879 57.0388 725.261 54.4317 726.346 52.0054C727.94 48.4447 732.355 46.7176 731.38 41V41Z" fill="black"/>
<path d="M739.866 69.6692C739.866 69.6692 740.825 70.4625 738.81 71.0756C734.978 72.2402 722.858 72.5913 719.492 71.1222C718.283 70.5939 720.552 69.8614 721.265 69.7068C722.01 69.5452 722.435 69.5746 722.435 69.5746C721.089 68.624 713.736 71.442 718.7 72.2503C732.238 74.4519 743.377 71.2588 739.866 69.6692V69.6692ZM725.679 59.3277C725.679 59.3277 719.515 60.7968 723.497 61.3309C725.178 61.5566 728.528 61.5048 731.651 61.242C734.203 61.0269 736.763 60.5676 736.763 60.5676C736.763 60.5676 735.864 60.9544 735.213 61.3998C728.952 63.0521 716.86 62.2825 720.342 60.5935C723.285 59.1653 725.679 59.3277 725.679 59.3277V59.3277ZM736.738 65.5288C743.101 62.2119 740.159 59.0243 738.105 59.4537C737.603 59.5586 737.377 59.65 737.377 59.65C737.377 59.65 737.564 59.3558 737.921 59.2293C741.984 57.7968 745.108 63.4556 736.61 65.697C736.61 65.6964 736.708 65.6078 736.738 65.5288V65.5288Z" fill="black"/>
<path d="M731.388 56.6628C732.903 58.4201 730.991 60 730.991 60C730.991 60 734.834 58.0005 733.07 55.4954C731.421 53.1604 730.157 52.0006 737 48C737 48.0003 726.258 50.7037 731.388 56.6628V56.6628Z" fill="black"/>
<path d="M725.031 66.9897C725.031 66.9897 723.542 67.7996 726.092 68.0729C729.181 68.4028 730.76 68.3555 734.164 67.7541C734.164 67.7541 735.061 68.2782 736.311 68.7325C728.678 71.7893 719.036 68.5552 725.031 66.9897ZM724.097 63C724.097 63 722.427 64.1559 724.979 64.4029C728.28 64.7214 730.886 64.7474 735.397 63.9358C735.397 63.9358 736.02 64.527 737 64.8499C727.773 67.3725 717.495 65.0484 724.097 63V63Z" fill="black"/>
<path d="M753.173 88.7744V99.7695C753.161 100.156 753.155 100.473 753.155 100.719C753.155 100.959 753.132 101.249 753.085 101.589C753.044 101.935 752.985 102.225 752.909 102.459C752.839 102.699 752.733 102.966 752.593 103.259C752.452 103.552 752.285 103.807 752.092 104.023C751.623 104.551 751.034 104.993 750.325 105.351L749.64 104.48C750.325 103.953 750.82 103.379 751.125 102.758C751.43 102.143 751.582 101.354 751.582 100.394V88.7744H753.173ZM760.749 101.158C757.813 101.158 756.346 99.8223 756.346 97.1504V88.7744H757.937V96.7285C757.937 97.8242 758.188 98.6299 758.692 99.1455C759.196 99.6611 759.861 99.9189 760.687 99.9189C762.357 99.9189 763.192 98.7764 763.192 96.4912V88.7744H764.695V96.8779C764.695 98.1729 764.35 99.21 763.658 99.9893C762.967 100.769 761.997 101.158 760.749 101.158ZM773.273 96.5439C773.273 94.6631 772.6 93.7227 771.252 93.7227C770.906 93.7227 770.59 93.8164 770.303 94.0039C769.863 94.2852 769.518 94.748 769.266 95.3926C769.178 95.6152 769.134 95.791 769.134 95.9199V101H767.719V92.7559H769.134V94.2676C769.661 93.1543 770.52 92.5977 771.709 92.5977C772.189 92.5977 772.62 92.7061 773.001 92.9229C773.388 93.1338 773.689 93.3623 773.906 93.6084C774.428 94.1885 774.688 95.0029 774.688 96.0518V101H773.273V96.5439ZM779.505 92.7559V101H778.09V93.8809H776.631V92.7559H779.505ZM777.756 89.4951C777.756 89.2021 777.855 88.9531 778.055 88.748C778.26 88.5371 778.506 88.4316 778.793 88.4316C779.08 88.4316 779.323 88.5371 779.522 88.748C779.728 88.9531 779.83 89.2021 779.83 89.4951C779.83 89.7881 779.728 90.04 779.522 90.251C779.323 90.4561 779.08 90.5586 778.793 90.5586C778.506 90.5586 778.26 90.4561 778.055 90.251C777.855 90.04 777.756 89.7881 777.756 89.4951ZM784.576 101.158C783.182 101.158 782.484 100.385 782.484 98.8379V93.8809H781.025V92.7559H782.484V91.0859L783.899 90.5586V92.7559H785.912V93.8809H783.899V98.75C783.899 99.2012 784.014 99.5264 784.242 99.7256C784.471 99.9189 784.726 100.016 785.007 100.016C785.552 100.016 785.977 99.9687 786.281 99.875L786.457 100.868C785.918 101.062 785.291 101.158 784.576 101.158ZM787.898 91.7803H793.137V92.9053H789.322L789.164 96.0781C790.611 96.1836 791.704 96.6055 792.442 97.3437C792.724 97.625 792.955 98.0029 793.137 98.4775C793.324 98.9521 793.418 99.4941 793.418 100.104C793.418 101.305 793.052 102.266 792.319 102.986C791.593 103.713 790.576 104.076 789.27 104.076C788.988 104.076 788.648 104.035 788.25 103.953C787.857 103.877 787.529 103.766 787.266 103.619L787.758 102.538C788.174 102.772 788.678 102.89 789.27 102.89C790.166 102.89 790.846 102.626 791.309 102.099C791.771 101.571 792.003 100.906 792.003 100.104C792.003 98.8379 791.408 97.9678 790.219 97.4932C789.621 97.2529 788.93 97.1328 788.145 97.1328H787.591L787.898 91.7803Z" fill="black"/>
<path d="M729.381 93.176C731.097 93.176 732.454 93.6302 733.456 94.5375C734.457 95.4458 734.958 96.6833 734.958 98.2521C734.958 100.069 734.387 101.489 733.247 102.512C732.114 103.53 730.499 104.039 728.403 104.039C726.501 104.039 725.007 103.732 723.921 103.119V100.64C724.6 101.016 725.329 101.294 726.086 101.466C726.901 101.659 727.658 101.757 728.357 101.757C729.591 101.757 730.53 101.481 731.174 100.93C731.819 100.378 732.141 99.5719 732.141 98.5083C732.141 96.475 730.844 95.4573 728.252 95.4573C727.887 95.4573 727.436 95.4969 726.901 95.574C726.366 95.6437 725.896 95.725 725.493 95.8187L724.27 95.0969L724.922 86.7844H733.771V89.2167H727.332L726.947 93.4312C727.22 93.3854 727.549 93.3312 727.936 93.2687C728.332 93.2062 728.815 93.175 729.381 93.175V93.176ZM729.5 83C722.597 83 717 88.5969 717 95.5C717 97.8241 717.649 100.102 718.873 102.078C720.096 104.054 721.847 105.649 723.927 106.685V102.857H724.071C724.081 102.861 729.133 105.426 732.426 102.857C735.721 100.286 734.114 96.8312 733.551 96.0271C732.989 95.224 730.096 93.8573 727.605 94.099C725.115 94.3396 725.115 94.4198 725.115 94.4198L725.757 87.0281L733.765 86.951V83.775C732.399 83.2702 730.955 83.0079 729.499 83H729.5ZM733.766 83.775V86.951L725.757 87.0281L725.115 94.4198C725.115 94.4198 725.115 94.3396 727.605 94.099C730.097 93.8573 732.99 95.224 733.551 96.0271C734.114 96.8312 735.721 100.286 732.426 102.857C729.134 105.427 724.079 102.861 724.072 102.857H723.926V106.685C725.657 107.549 727.565 107.999 729.5 108C736.404 108 742 102.403 742 95.5C741.996 92.9841 741.234 90.5278 739.812 88.4521C738.39 86.3763 736.376 84.7775 734.031 83.8646C733.943 83.8333 733.854 83.8031 733.766 83.775V83.775Z" fill="black"/>
<path d="M270.016 111.711C274.117 111.711 278.078 110.27 281.898 107.387L284.992 111.57C282.508 113.375 280.457 114.582 278.84 115.191C276.262 116.152 272.723 116.633 268.223 116.633C263.723 116.633 259.75 115.578 256.305 113.469C252.859 111.359 250.234 108.418 248.43 104.645C246.625 100.848 245.723 96.4766 245.723 91.5312C245.723 86.5859 246.625 82.2266 248.43 78.4531C250.234 74.6797 252.859 71.7383 256.305 69.6289C259.75 67.5195 263.77 66.4648 268.363 66.4648C272.746 66.4648 275.816 66.793 277.574 67.4492C279.355 68.1055 280.691 68.7031 281.582 69.2422C282.473 69.7578 283.609 70.5195 284.992 71.5273L281.898 75.7109C278.078 72.8281 274.117 71.3867 270.016 71.3867H269.594C266.969 71.3867 264.508 71.9492 262.211 73.0742C257.969 75.1367 255.004 78.793 253.316 84.043C252.52 86.457 252.121 88.9648 252.121 91.5664C252.121 94.168 252.508 96.6758 253.281 99.0898C254.078 101.48 255.18 103.625 256.586 105.523C259.703 109.648 264.039 111.711 269.594 111.711H270.016ZM316.141 109.953C314.031 114.406 310.598 116.633 305.84 116.633C303.918 116.633 302.184 116.211 300.637 115.367C299.113 114.5 297.906 113.574 297.016 112.59C296.148 111.605 295.422 110.27 294.836 108.582C294.227 106.895 293.922 104.973 293.922 102.816V83.0234H299.582V100.848C299.582 108.371 302.277 112.133 307.668 112.133C309.051 112.133 310.316 111.758 311.465 111.008C313.223 109.883 314.605 108.031 315.613 105.453C315.965 104.562 316.141 103.859 316.141 103.344V83.0234H321.801V116H316.141V109.953ZM346.902 112.098C349.645 112.098 352.281 111.172 354.812 109.32L356.992 113.117C355.141 114.477 353.488 115.402 352.035 115.895C350.582 116.387 348.391 116.633 345.461 116.633C340.633 116.633 336.801 115.074 333.965 111.957C331.152 108.84 329.746 104.691 329.746 99.5117C329.746 94.332 331.152 90.1836 333.965 87.0664C336.801 83.9492 340.633 82.3906 345.461 82.3906C348.391 82.3906 350.582 82.6367 352.035 83.1289C353.488 83.6211 355.141 84.5469 356.992 85.9062L354.812 89.7031C352.281 87.8516 349.645 86.9258 346.902 86.9258H346.691C343.27 86.9258 340.527 88.1562 338.465 90.6172C336.426 93.0781 335.406 96.043 335.406 99.5117C335.406 102.98 336.426 105.945 338.465 108.406C340.527 110.867 343.27 112.098 346.691 112.098H346.902ZM386.805 109.953C384.695 114.406 381.262 116.633 376.504 116.633C374.582 116.633 372.848 116.211 371.301 115.367C369.777 114.5 368.57 113.574 367.68 112.59C366.812 111.605 366.086 110.27 365.5 108.582C364.891 106.895 364.586 104.973 364.586 102.816V83.0234H370.246V100.848C370.246 108.371 372.941 112.133 378.332 112.133C379.715 112.133 380.98 111.758 382.129 111.008C383.887 109.883 385.27 108.031 386.277 105.453C386.629 104.562 386.805 103.859 386.805 103.344V83.0234H392.465V116H386.805V109.953ZM424.527 99.5117C424.527 91.0977 422.02 86.8906 417.004 86.8906C415.645 86.8906 414.414 87.3945 413.312 88.4023C412.211 89.4102 411.367 90.6406 410.781 92.0938C410.055 93.5703 409.691 95.1055 409.691 96.6992V116H404.031V83.0234H409.691V88.2617C410.418 86.5508 411.484 85.1445 412.891 84.043C414.32 82.9414 416.09 82.3906 418.199 82.3906C423.496 82.3906 427.012 85.0273 428.746 90.3008C430.598 85.0273 433.855 82.3906 438.52 82.3906C442.387 82.3906 445.316 83.832 447.309 86.7148C449.324 89.5977 450.332 93.8633 450.332 99.5117V115.965L444.848 116V99.5117C444.848 91.0977 442.34 86.8906 437.324 86.8906C435.965 86.8906 434.734 87.3945 433.633 88.4023C432.531 89.4102 431.688 90.6406 431.102 92.0938C430.375 93.5703 430.012 95.1055 430.012 96.6992V116H424.527V99.5117ZM477.016 86.8906C473.195 86.8906 470.043 89 467.559 93.2188V110.797C468.918 111.664 470.734 112.098 473.008 112.098C479.148 112.098 483.098 109.379 484.855 103.941C485.348 102.348 485.594 100.555 485.594 98.5625C485.594 96.5469 485.336 94.7422 484.82 93.1484C483.977 90.3828 482.395 88.4961 480.074 87.4883C479.113 87.0898 478.094 86.8906 477.016 86.8906ZM467.559 86.8906C469.082 85.1797 470.629 84.0078 472.199 83.375C473.77 82.7188 475.492 82.3906 477.367 82.3906C481.164 82.3906 484.375 83.6797 487 86.2578C488.312 87.5469 489.344 89.293 490.094 91.4961C490.867 93.6758 491.254 96.0312 491.254 98.5625C491.254 105.242 488.758 110.305 483.766 113.75C480.93 115.672 477.883 116.633 474.625 116.633C469.867 116.633 465.625 115.484 461.898 113.188V64.1445H467.559V86.8906ZM510.977 86.8906C507.719 86.8906 505.281 87.875 503.664 89.8438C502.539 91.2031 501.801 93.125 501.449 95.6094H518.5C518.289 93.0547 517.527 90.957 516.215 89.3164C514.879 87.6992 513.133 86.8906 510.977 86.8906ZM522.859 114.066C520.328 115.777 516.906 116.633 512.594 116.633C507.133 116.633 502.926 115.074 499.973 111.957C497.02 108.84 495.543 104.691 495.543 99.5117C495.543 92.7617 497.734 87.875 502.117 84.8516C504.555 83.2109 507.273 82.3906 510.273 82.3906C514.914 82.3906 518.43 83.9609 520.82 87.1016C522.836 89.7969 523.914 93.3359 524.055 97.7188L523.211 99.8281H501.203C501.25 103.719 502.293 106.742 504.332 108.898C506.371 111.031 509.09 112.098 512.488 112.098C515.066 112.098 518.02 111.406 521.348 110.023L522.859 114.066ZM532.211 116V83.0234H537.871V89.0703C538.715 87.2422 539.91 85.6719 541.457 84.3594C543.027 83.0469 544.797 82.3906 546.766 82.3906C548.758 82.3906 550.387 82.7422 551.652 83.4453C552.941 84.125 553.797 84.8516 554.219 85.625L551.828 89.2109C551.5 88.7891 551.184 88.4375 550.879 88.1562C550.012 87.3125 548.734 86.8906 547.047 86.8906C545.359 86.8906 543.836 87.4297 542.477 88.5078C541.117 89.6094 540.039 90.9453 539.242 92.5156C538.445 94.0859 537.988 95.6562 537.871 97.2266V116H532.211Z" fill="black"/>
<path d="M611.609 47.0008C593.978 46.8896 577.628 58.1517 572.545 75.6103C566.29 97.0999 579.617 119.35 601.879 124.597V136L604.26 135.651C629.792 131.913 649.415 112.46 650.917 89.4015C651.898 74.4163 644.092 59.4978 631.495 52.2814C629.099 50.8965 626.549 49.783 623.894 48.9625C619.928 47.6924 615.784 47.0306 611.609 47.0008V47.0008ZM611.29 51.0317H611.339C615.183 51.0317 619.001 51.6288 622.655 52.8006C625.004 53.5266 627.261 54.512 629.381 55.7376C640.674 62.2048 647.666 75.6252 646.78 89.1419C645.449 109.612 628.469 126.996 606.02 131.268V121.315L604.347 121C595.481 119.354 587.566 114.537 582.154 107.493C576.742 100.45 574.223 91.688 575.093 82.927C575.962 74.166 580.156 66.0379 586.853 60.1372C593.55 54.2365 602.265 50.989 611.29 51.0317V51.0317ZM619.054 66.9997C618.457 66.9315 617.852 67.0085 617.292 67.224C616.733 67.4395 616.237 67.7867 615.849 68.2345C615.309 68.9707 614.844 69.7555 614.457 70.5782C613.237 73.3335 612.799 77.2642 614.621 79.4225L614.617 79.4336C616.204 78.9792 617.675 78.2019 618.932 77.153C620.189 76.1041 621.204 74.8074 621.91 73.3483C622.307 72.5396 622.521 71.6567 622.537 70.7599C622.558 69.8182 622.208 68.9044 621.561 68.2054C620.914 67.5064 620.017 67.0751 619.054 66.9997ZM603.613 67.3408C602.67 67.4206 601.79 67.8357 601.141 68.5073C600.492 69.1788 600.119 70.0598 600.092 70.9824C600.13 71.8761 600.358 72.755 600.777 73.5559C601.598 75.0153 602.718 76.2948 604.066 77.3154C605.415 78.3359 606.964 79.0758 608.617 79.4892C610.187 77.2902 609.438 73.3705 608.168 70.6412C607.809 69.862 607.325 69.1435 606.735 68.5127C606.353 68.0823 605.869 67.7502 605.324 67.5459C604.78 67.3415 604.192 67.2711 603.613 67.3408V67.3408ZM594.377 76.6672C591.115 76.797 589.815 80.8428 592.416 82.7674C593.168 83.3088 593.974 83.7797 594.819 84.1765C596.345 84.8195 597.996 85.1294 599.658 85.0846C601.32 85.0397 602.951 84.6412 604.438 83.9169C603.855 82.4348 602.971 81.0833 601.837 79.9437C600.704 78.8042 599.346 77.9003 597.845 77.2865C596.755 76.8171 595.567 76.6049 594.377 76.6672V76.6672ZM623.891 88.5931C622.277 88.6642 620.691 89.0368 619.221 89.6908C619.796 91.1537 620.672 92.4862 621.795 93.6056C622.919 94.7251 624.266 95.6077 625.754 96.1988C626.651 96.5882 627.617 96.7959 628.594 96.8144C629.363 96.9018 630.14 96.7413 630.807 96.3575C631.474 95.9738 631.994 95.3878 632.287 94.6889C632.581 93.9901 632.632 93.2168 632.432 92.4871C632.233 91.7574 631.794 91.1113 631.183 90.6475C628.678 88.9417 626.982 88.5152 623.891 88.5931V88.5931ZM601.647 88.7044C600.518 88.6599 599.233 88.7414 597.91 88.8008C595.784 88.8008 593.241 89.8317 592.229 90.896C589.587 93.158 591.514 97.3892 595.005 96.9924C595.987 96.9979 596.959 96.7862 597.845 96.3731C600.674 95.179 604.035 91.9157 604.438 89.3644C603.746 88.9194 602.773 88.7526 601.644 88.7044H601.647ZM609.579 93.2062C606.298 94.3929 603.647 96.8218 602.241 99.9442C601.84 100.73 601.623 101.592 601.606 102.47C601.53 105.837 605.754 107.517 608.111 105.058C608.644 104.32 609.107 103.538 609.488 102.714C610.712 100.156 611.195 95.5647 609.579 93.2062V93.2062ZM615.271 93.8478C614.498 95.2257 614.056 96.7571 613.98 98.326C613.904 99.8949 614.194 101.46 614.83 102.903C615.168 103.686 615.628 104.416 616.206 105.054C618.4 107.379 623.088 105.744 622.91 102.718C622.899 101.821 622.682 100.938 622.275 100.133C621.631 98.6612 620.674 97.3394 619.466 96.2557C618.259 95.172 616.829 94.3512 615.271 93.8478Z" fill="black"/>
<path d="M741.69 119.612L733.6 128.281C733.577 128.305 733.549 128.323 733.518 128.336C733.487 128.348 733.453 128.355 733.42 128.355C733.386 128.355 733.353 128.348 733.322 128.336C733.291 128.323 733.263 128.305 733.24 128.281L729.109 124.219C729.075 124.177 729.056 124.125 729.056 124.072C729.056 124.019 729.075 123.967 729.109 123.925L730.451 122.25C730.474 122.22 730.505 122.196 730.539 122.179C730.574 122.163 730.612 122.154 730.651 122.154C730.69 122.154 730.728 122.163 730.763 122.179C730.797 122.196 730.827 122.22 730.851 122.25L733.148 124.694C733.171 124.719 733.2 124.739 733.232 124.753C733.264 124.767 733.299 124.774 733.335 124.774C733.37 124.774 733.405 124.767 733.437 124.753C733.469 124.739 733.498 124.719 733.521 124.694L740.001 116.262C740.019 116.238 740.029 116.209 740.031 116.179C740.033 116.149 740.027 116.12 740.013 116.093C739.999 116.066 739.978 116.044 739.951 116.027C739.925 116.011 739.895 116.002 739.864 116H717.19C717.139 116 717.091 116.019 717.056 116.053C717.02 116.087 717 116.133 717 116.181V140.819C717 140.867 717.02 140.913 717.056 140.947C717.091 140.981 717.139 141 717.19 141H741.808C741.858 141 741.907 140.981 741.942 140.947C741.978 140.913 741.998 140.867 741.998 140.819V119.75C742.004 119.714 741.997 119.677 741.979 119.644C741.961 119.612 741.933 119.586 741.898 119.571C741.863 119.555 741.824 119.551 741.787 119.558C741.749 119.566 741.715 119.585 741.69 119.612V119.612ZM723.971 138.256C722.35 138.325 720.764 137.787 719.553 136.756C719.515 136.714 719.495 136.661 719.495 136.606C719.495 136.551 719.515 136.498 719.553 136.456L720.515 135.169C720.535 135.142 720.56 135.12 720.59 135.103C720.619 135.087 720.652 135.076 720.686 135.073C720.72 135.069 720.755 135.073 720.787 135.083C720.82 135.093 720.85 135.109 720.875 135.131C721.754 135.91 722.91 136.341 724.109 136.337C725.372 136.337 725.987 135.781 725.987 135.194C725.987 133.369 719.769 134.619 719.769 130.737C719.769 129.019 721.327 127.612 723.866 127.612C725.334 127.563 726.771 128.022 727.912 128.906C727.953 128.949 727.975 129.005 727.975 129.062C727.975 129.12 727.953 129.176 727.912 129.219L726.923 130.469C726.903 130.493 726.879 130.514 726.85 130.529C726.822 130.545 726.79 130.555 726.758 130.558C726.726 130.562 726.693 130.559 726.662 130.55C726.63 130.541 726.601 130.526 726.576 130.506C725.738 129.868 724.696 129.524 723.624 129.531C722.636 129.531 722.086 129.95 722.086 130.569C722.086 132.206 728.291 131.113 728.291 134.944C728.298 136.831 726.89 138.256 723.971 138.256V138.256ZM737.54 134.681C737.54 134.734 737.518 134.785 737.479 134.823C737.44 134.86 737.386 134.881 737.331 134.881H731.656C731.647 134.881 731.637 134.883 731.629 134.887C731.621 134.89 731.613 134.895 731.607 134.902C731.601 134.908 731.596 134.916 731.593 134.924C731.59 134.932 731.589 134.941 731.59 134.95C731.683 135.456 731.97 135.911 732.394 136.226C732.819 136.542 733.351 136.695 733.888 136.656C734.593 136.638 735.276 136.421 735.851 136.031C735.874 136.014 735.9 136.002 735.927 135.995C735.955 135.989 735.984 135.987 736.012 135.991C736.04 135.995 736.067 136.005 736.091 136.019C736.115 136.034 736.136 136.053 736.153 136.075L736.846 137.044C736.876 137.087 736.888 137.139 736.879 137.19C736.871 137.241 736.843 137.287 736.801 137.319C735.886 137.954 734.777 138.284 733.646 138.256C733.08 138.286 732.514 138.203 731.984 138.012C731.454 137.821 730.971 137.526 730.568 137.146C730.164 136.767 729.848 136.311 729.64 135.808C729.431 135.305 729.335 134.766 729.358 134.225C729.342 133.698 729.438 133.173 729.641 132.682C729.844 132.191 730.148 131.744 730.537 131.369C730.926 130.994 731.39 130.698 731.902 130.499C732.413 130.301 732.962 130.203 733.515 130.212C735.91 130.212 737.534 131.925 737.534 134.431L737.54 134.681ZM733.521 131.819C733.04 131.805 732.571 131.964 732.207 132.265C731.843 132.566 731.612 132.987 731.558 133.444C731.557 133.452 731.558 133.461 731.56 133.47C731.563 133.478 731.568 133.486 731.574 133.492C731.58 133.499 731.588 133.504 731.596 133.507C731.605 133.511 731.614 133.513 731.623 133.512H735.433C735.442 133.513 735.451 133.511 735.459 133.507C735.468 133.504 735.475 133.499 735.481 133.492C735.487 133.486 735.492 133.478 735.495 133.47C735.498 133.461 735.499 133.452 735.498 133.444C735.459 132.979 735.23 132.547 734.86 132.243C734.49 131.938 734.009 131.786 733.521 131.819V131.819Z" fill="black"/>
<path d="M751.38 131.776C751.544 131.894 751.693 132.008 751.828 132.119C751.969 132.23 752.127 132.336 752.303 132.436C752.479 132.529 752.66 132.611 752.848 132.682C753.258 132.846 753.718 132.928 754.228 132.928C755.083 132.928 755.672 132.72 755.994 132.304C756.27 131.946 756.407 131.595 756.407 131.249C756.407 130.897 756.372 130.622 756.302 130.423C756.167 130.077 755.897 129.752 755.493 129.447C755.323 129.33 755.121 129.204 754.887 129.069L753.445 128.357C752.906 128.064 752.496 127.78 752.215 127.505C751.934 127.229 751.723 126.975 751.582 126.74C751.271 126.219 751.116 125.542 751.116 124.71C751.116 123.878 751.418 123.154 752.021 122.539C752.625 121.924 753.41 121.616 754.377 121.616C754.992 121.616 755.543 121.695 756.029 121.854C756.521 122.012 756.911 122.202 757.198 122.425L756.864 123.638C756.167 123.099 755.376 122.829 754.491 122.829C753.935 122.829 753.498 123.014 753.182 123.383C752.871 123.752 752.716 124.227 752.716 124.807C752.716 125.07 752.76 125.311 752.848 125.527C752.994 125.914 753.299 126.26 753.762 126.564C753.943 126.693 754.195 126.828 754.518 126.969L755.897 127.672C756.144 127.807 756.36 127.941 756.548 128.076C756.741 128.205 756.932 128.363 757.119 128.551C757.711 129.143 758.007 129.907 758.007 130.845C758.007 131.776 757.688 132.562 757.049 133.2C756.41 133.839 755.578 134.158 754.553 134.158C753.428 134.158 752.502 133.959 751.775 133.561C751.383 133.35 751.072 133.165 750.844 133.007L751.38 131.776ZM763.254 126.723C762.439 126.723 761.83 126.969 761.426 127.461C761.145 127.801 760.96 128.281 760.872 128.902H765.135C765.082 128.264 764.892 127.739 764.563 127.329C764.229 126.925 763.793 126.723 763.254 126.723ZM766.225 133.517C765.592 133.944 764.736 134.158 763.658 134.158C762.293 134.158 761.241 133.769 760.503 132.989C759.765 132.21 759.396 131.173 759.396 129.878C759.396 128.19 759.943 126.969 761.039 126.213C761.648 125.803 762.328 125.598 763.078 125.598C764.238 125.598 765.117 125.99 765.715 126.775C766.219 127.449 766.488 128.334 766.523 129.43L766.312 129.957H760.811C760.822 130.93 761.083 131.686 761.593 132.225C762.103 132.758 762.782 133.024 763.632 133.024C764.276 133.024 765.015 132.852 765.847 132.506L766.225 133.517ZM770.391 134.158C769.172 134.158 768.562 133.385 768.562 131.838V121.036H769.978V131.75C769.978 132.201 770.065 132.526 770.241 132.726C770.423 132.919 770.59 133.016 770.742 133.016C770.895 133.016 771.229 132.992 771.744 132.945L771.858 133.974C771.272 134.097 770.783 134.158 770.391 134.158ZM776.736 126.723C775.922 126.723 775.312 126.969 774.908 127.461C774.627 127.801 774.442 128.281 774.354 128.902H778.617C778.564 128.264 778.374 127.739 778.046 127.329C777.712 126.925 777.275 126.723 776.736 126.723ZM779.707 133.517C779.074 133.944 778.219 134.158 777.141 134.158C775.775 134.158 774.724 133.769 773.985 132.989C773.247 132.21 772.878 131.173 772.878 129.878C772.878 128.19 773.426 126.969 774.521 126.213C775.131 125.803 775.811 125.598 776.561 125.598C777.721 125.598 778.6 125.99 779.197 126.775C779.701 127.449 779.971 128.334 780.006 129.43L779.795 129.957H774.293C774.305 130.93 774.565 131.686 775.075 132.225C775.585 132.758 776.265 133.024 777.114 133.024C777.759 133.024 778.497 132.852 779.329 132.506L779.707 133.517ZM787.6 129.544C787.6 127.663 786.926 126.723 785.578 126.723C785.232 126.723 784.916 126.816 784.629 127.004C784.189 127.285 783.844 127.748 783.592 128.393C783.504 128.615 783.46 128.791 783.46 128.92V134H782.045V125.756H783.46V127.268C783.987 126.154 784.846 125.598 786.035 125.598C786.516 125.598 786.946 125.706 787.327 125.923C787.714 126.134 788.016 126.362 788.232 126.608C788.754 127.188 789.015 128.003 789.015 129.052V134H787.6V129.544ZM793.831 125.756V134H792.416V126.881H790.957V125.756H793.831ZM792.082 122.495C792.082 122.202 792.182 121.953 792.381 121.748C792.586 121.537 792.832 121.432 793.119 121.432C793.406 121.432 793.649 121.537 793.849 121.748C794.054 121.953 794.156 122.202 794.156 122.495C794.156 122.788 794.054 123.04 793.849 123.251C793.649 123.456 793.406 123.559 793.119 123.559C792.832 123.559 792.586 123.456 792.381 123.251C792.182 123.04 792.082 122.788 792.082 122.495ZM802.277 132.488C801.75 133.602 800.892 134.158 799.702 134.158C799.222 134.158 798.788 134.053 798.401 133.842C798.021 133.625 797.719 133.394 797.496 133.147C797.279 132.901 797.098 132.567 796.951 132.146C796.799 131.724 796.723 131.243 796.723 130.704V125.756H798.138V130.212C798.138 132.093 798.812 133.033 800.159 133.033C800.505 133.033 800.821 132.939 801.108 132.752C801.548 132.471 801.894 132.008 802.146 131.363C802.233 131.141 802.277 130.965 802.277 130.836V125.756H803.692V134H802.277V132.488ZM811.708 129.878C811.708 127.774 811.081 126.723 809.827 126.723C809.487 126.723 809.18 126.849 808.904 127.101C808.629 127.353 808.418 127.66 808.271 128.023C808.09 128.393 807.999 128.776 807.999 129.175V134H806.584V125.756H807.999V127.065C808.181 126.638 808.447 126.286 808.799 126.011C809.156 125.735 809.599 125.598 810.126 125.598C811.45 125.598 812.329 126.257 812.763 127.575C813.226 126.257 814.04 125.598 815.206 125.598C816.173 125.598 816.905 125.958 817.403 126.679C817.907 127.399 818.159 128.466 818.159 129.878V133.991L816.788 134V129.878C816.788 127.774 816.161 126.723 814.907 126.723C814.567 126.723 814.26 126.849 813.984 127.101C813.709 127.353 813.498 127.66 813.352 128.023C813.17 128.393 813.079 128.776 813.079 129.175V134H811.708V129.878Z" fill="black"/>
</svg>
